<?xml version="1.0" standalone="no"?>
<!DOCTYPE svg PUBLIC "-//W3C//DTD SVG 20010904//EN"
 "http://www.w3.org/TR/2001/REC-SVG-20010904/DTD/svg10.dtd">
<svg version="1.0" xmlns="http://www.w3.org/2000/svg"
 width="975.000000pt" height="773.000000pt" viewBox="0 0 975.000000 773.000000"
 preserveAspectRatio="xMidYMid meet">

<g transform="translate(0.000000,773.000000) scale(0.100000,-0.100000)"
fill="#000000" stroke="none">
<path d="M0 3865 l0 -3865 4875 0 4875 0 0 3865 0 3865 -4875 0 -4875 0 0
-3865z m5980 1877 c15 -12 24 -33 27 -65 l6 -47 -87 0 -86 0 0 -105 0 -104 83
-3 82 -3 3 -145 c1 -79 0 -150 -2 -157 -4 -9 -22 -5 -70 17 -75 33 -232 85
-291 95 l-40 7 58 -59 c31 -32 57 -61 57 -65 0 -3 -11 -9 -25 -12 -14 -4 -25
-10 -25 -14 0 -4 35 -18 78 -31 163 -52 332 -154 367 -222 22 -42 20 -42 -37
1 -29 22 -56 40 -60 40 -4 0 -9 -66 -10 -147 l-3 -148 -70 -37 c-137 -73 -417
-149 -655 -178 -140 -17 -445 -23 -604 -11 -82 5 -151 13 -154 15 -2 3 12 28
33 56 20 27 33 50 28 50 -17 0 -358 -102 -365 -109 -4 -4 56 -69 133 -146 132
-131 141 -138 135 -105 -4 19 -9 53 -13 76 l-5 41 68 -10 c105 -14 622 -14
734 1 454 60 761 170 912 328 68 72 92 125 93 205 0 37 3 65 7 63 3 -2 14 -24
23 -49 22 -55 17 -153 -10 -210 -28 -60 -139 -165 -217 -205 l-67 -35 -3 -115
-3 -115 -82 -3 -83 -3 0 -104 0 -105 85 0 c84 0 85 0 85 -25 0 -36 -19 -71
-47 -84 -17 -8 -327 -11 -1077 -11 -1050 0 -1053 0 -1080 21 -20 16 -26 29
-26 60 l0 39 80 0 80 0 0 105 0 105 -80 0 -80 0 0 166 c0 129 3 165 13 161
133 -61 354 -134 366 -122 3 3 -19 30 -48 59 l-54 54 43 12 c23 6 40 13 39 15
-2 1 -52 19 -111 38 -173 58 -290 126 -348 203 -46 61 -35 69 27 20 31 -25 60
-43 65 -40 4 3 8 70 8 149 l0 145 68 34 c237 119 554 183 957 193 211 5 447
-6 463 -21 2 -3 -14 -28 -36 -58 -23 -29 -40 -54 -38 -55 4 -4 376 102 376
107 0 3 -63 70 -141 150 -109 113 -139 139 -134 117 3 -15 8 -47 12 -72 l6
-46 -119 8 c-198 13 -565 8 -712 -10 -337 -42 -631 -133 -794 -245 -110 -76
-174 -172 -185 -278 l-6 -56 -14 34 c-25 55 -21 155 7 213 33 68 110 143 205
199 l80 46 5 108 5 107 78 3 77 3 0 104 0 105 -80 0 -80 0 0 45 c0 32 6 51 20
65 20 20 33 20 1089 20 1012 0 1070 -1 1091 -18z m-3200 -2533 c97 -43 160
-138 160 -240 0 -161 -106 -269 -266 -269 -84 0 -129 16 -185 67 -149 135
-100 381 90 449 56 20 149 17 201 -7z m-896 -90 c32 -55 64 -98 70 -96 6 2 37
47 70 100 l58 97 69 0 69 0 0 -255 0 -255 -65 0 -65 0 0 125 c0 69 -4 125 -8
125 -4 0 -30 -38 -57 -85 -66 -112 -77 -112 -140 -5 -26 44 -51 83 -56 86 -5
3 -9 -48 -9 -120 l0 -126 -65 0 -65 0 0 255 0 255 68 0 67 0 59 -101z m1361
-41 c26 -79 51 -147 55 -151 4 -5 30 58 57 140 l50 148 72 3 c66 3 72 1 67
-15 -3 -10 -41 -124 -84 -253 l-79 -235 -79 -3 -80 -3 -77 241 c-43 132 -80
247 -83 255 -5 12 6 15 64 15 l70 0 47 -142z m613 -115 l2 -253 -70 0 -70 0 0
255 0 256 68 -3 67 -3 3 -252z m552 203 c0 -65 -2 -66 -116 -66 l-84 0 0 -29
c0 -36 12 -41 106 -41 l74 0 0 -55 0 -55 -74 0 c-98 0 -106 -4 -106 -51 l0
-38 98 -3 97 -3 3 -62 3 -63 -166 0 -165 0 0 260 0 260 165 0 165 0 0 -54z
m840 32 c47 -32 71 -68 77 -116 8 -61 -4 -108 -39 -148 -25 -28 -29 -40 -22
-52 6 -10 30 -52 53 -94 l42 -78 -78 0 -78 0 -41 77 c-43 82 -61 100 -88 90
-13 -5 -16 -22 -16 -87 l0 -80 -65 0 -65 0 0 255 0 255 144 0 c132 0 146 -2
176 -22z m610 -32 c0 -65 -2 -66 -116 -66 l-85 0 3 -32 3 -33 88 -3 87 -3 0
-54 0 -54 -87 -3 -88 -3 -3 -42 -3 -42 98 -3 98 -3 3 -62 3 -63 -166 0 -165 0
0 260 0 260 165 0 165 0 0 -54z m409 -61 c40 -63 77 -115 82 -115 5 0 9 52 9
115 l0 115 65 0 65 0 0 -255 0 -256 -61 3 -62 3 -81 127 c-45 70 -84 128 -88
128 -5 0 -8 -58 -8 -130 l0 -130 -65 0 -65 0 0 255 0 255 68 0 67 0 74 -115z
m781 61 c0 -62 -5 -66 -81 -66 l-49 0 0 -195 0 -195 -65 0 -65 0 0 195 0 194
-62 3 -63 3 -3 58 -3 57 196 0 195 0 0 -54z m410 51 c0 -2 40 -113 90 -248 49
-134 90 -247 90 -251 0 -5 -31 -8 -68 -8 l-69 0 -19 43 -19 42 -80 0 -80 0
-19 -42 -19 -43 -69 0 c-37 0 -68 2 -68 5 0 2 36 104 81 227 45 123 86 235 91
251 10 26 12 27 84 27 41 0 74 -1 74 -3z m480 -192 l0 -195 88 0 c48 0 93 -4
100 -9 9 -5 12 -25 10 -62 l-3 -54 -165 0 -165 0 -3 245 c-1 134 0 250 3 257
3 9 26 13 70 13 l65 0 0 -195z"/>
<path d="M4157 5623 c-4 -3 -7 -51 -7 -105 l0 -98 105 0 105 0 0 105 0 105
-98 0 c-54 0 -102 -3 -105 -7z"/>
<path d="M4580 5525 l0 -105 105 0 106 0 -3 103 -3 102 -102 3 -103 3 0 -106z"/>
<path d="M5000 5525 l0 -105 105 0 105 0 0 105 0 105 -105 0 -105 0 0 -105z"/>
<path d="M5420 5525 l0 -105 105 0 105 0 0 105 0 105 -105 0 -105 0 0 -105z"/>
<path d="M4152 3978 l3 -103 103 -3 102 -3 0 106 0 105 -105 0 -106 0 3 -102z"/>
<path d="M4580 3975 l0 -106 103 3 102 3 3 103 3 102 -106 0 -105 0 0 -105z"/>
<path d="M5000 3975 l0 -106 103 3 102 3 3 103 3 102 -106 0 -105 0 0 -105z"/>
<path d="M5420 3975 l0 -105 105 0 105 0 0 105 0 105 -105 0 -105 0 0 -105z"/>
<path d="M2605 3082 c-81 -51 -93 -152 -27 -215 102 -97 266 3 223 136 -27 82
-128 122 -196 79z"/>
<path d="M5060 3050 l0 -50 60 0 c52 0 61 3 76 25 15 23 15 27 0 50 -15 22
-24 25 -76 25 l-60 0 0 -50z"/>
<path d="M7371 2988 c-25 -68 -25 -68 13 -68 41 0 42 3 21 54 -18 42 -23 44
-34 14z"/>
</g>
</svg>
